<svg xmlns="http://www.w3.org/2000/svg" viewBox="0 0 1000 1000" role="img" aria-label="TAO VEDA">
<title>TAO VEDA</title>
<rect width="1000" height="1000" fill="#ffffff"/>
<circle cx="500.0" cy="500.0" r="453.00" fill="none" stroke="#000000" stroke-width="14"/>
<circle cx="500.0" cy="500.0" r="420" fill="none" stroke="#000000" stroke-width="1.6"/>
<circle cx="500.0" cy="500.0" r="380" fill="none" stroke="#000000" stroke-width="1.6"/>
<g stroke="#000000" stroke-width="1.6" stroke-linecap="round">
  <line x1="500.00" y1="81.00" x2="500.00" y2="114.00"/>
  <line x1="543.80" y1="83.30" x2="540.35" y2="116.11"/>
  <line x1="587.11" y1="90.16" x2="580.25" y2="122.44"/>
  <line x1="629.48" y1="101.51" x2="619.28" y2="132.89"/>
  <line x1="670.42" y1="117.22" x2="657.00" y2="147.37"/>
  <line x1="709.50" y1="137.14" x2="693.00" y2="165.71"/>
  <line x1="746.28" y1="161.02" x2="726.89" y2="187.72"/>
  <line x1="780.37" y1="188.62" x2="758.28" y2="213.15"/>
  <line x1="811.38" y1="219.63" x2="786.85" y2="241.72"/>
  <line x1="838.98" y1="253.72" x2="812.28" y2="273.11"/>
  <line x1="862.86" y1="290.50" x2="834.29" y2="307.00"/>
  <line x1="882.78" y1="329.58" x2="852.63" y2="343.00"/>
  <line x1="898.49" y1="370.52" x2="867.11" y2="380.72"/>
  <line x1="909.84" y1="412.89" x2="877.56" y2="419.75"/>
  <line x1="916.70" y1="456.20" x2="883.89" y2="459.65"/>
  <line x1="919.00" y1="500.00" x2="886.00" y2="500.00"/>
  <line x1="916.70" y1="543.80" x2="883.89" y2="540.35"/>
  <line x1="909.84" y1="587.11" x2="877.56" y2="580.25"/>
  <line x1="898.49" y1="629.48" x2="867.11" y2="619.28"/>
  <line x1="882.78" y1="670.42" x2="852.63" y2="657.00"/>
  <line x1="862.86" y1="709.50" x2="834.29" y2="693.00"/>
  <line x1="838.98" y1="746.28" x2="812.28" y2="726.89"/>
  <line x1="811.38" y1="780.37" x2="786.85" y2="758.28"/>
  <line x1="780.37" y1="811.38" x2="758.28" y2="786.85"/>
  <line x1="746.28" y1="838.98" x2="726.89" y2="812.28"/>
  <line x1="709.50" y1="862.86" x2="693.00" y2="834.29"/>
  <line x1="670.42" y1="882.78" x2="657.00" y2="852.63"/>
  <line x1="629.48" y1="898.49" x2="619.28" y2="867.11"/>
  <line x1="587.11" y1="909.84" x2="580.25" y2="877.56"/>
  <line x1="543.80" y1="916.70" x2="540.35" y2="883.89"/>
  <line x1="500.00" y1="919.00" x2="500.00" y2="886.00"/>
  <line x1="456.20" y1="916.70" x2="459.65" y2="883.89"/>
  <line x1="412.89" y1="909.84" x2="419.75" y2="877.56"/>
  <line x1="370.52" y1="898.49" x2="380.72" y2="867.11"/>
  <line x1="329.58" y1="882.78" x2="343.00" y2="852.63"/>
  <line x1="290.50" y1="862.86" x2="307.00" y2="834.29"/>
  <line x1="253.72" y1="838.98" x2="273.11" y2="812.28"/>
  <line x1="219.63" y1="811.38" x2="241.72" y2="786.85"/>
  <line x1="188.62" y1="780.37" x2="213.15" y2="758.28"/>
  <line x1="161.02" y1="746.28" x2="187.72" y2="726.89"/>
  <line x1="137.14" y1="709.50" x2="165.71" y2="693.00"/>
  <line x1="117.22" y1="670.42" x2="147.37" y2="657.00"/>
  <line x1="101.51" y1="629.48" x2="132.89" y2="619.28"/>
  <line x1="90.16" y1="587.11" x2="122.44" y2="580.25"/>
  <line x1="83.30" y1="543.80" x2="116.11" y2="540.35"/>
  <line x1="81.00" y1="500.00" x2="114.00" y2="500.00"/>
  <line x1="83.30" y1="456.20" x2="116.11" y2="459.65"/>
  <line x1="90.16" y1="412.89" x2="122.44" y2="419.75"/>
  <line x1="101.51" y1="370.52" x2="132.89" y2="380.72"/>
  <line x1="117.22" y1="329.58" x2="147.37" y2="343.00"/>
  <line x1="137.14" y1="290.50" x2="165.71" y2="307.00"/>
  <line x1="161.02" y1="253.72" x2="187.72" y2="273.11"/>
  <line x1="188.62" y1="219.63" x2="213.15" y2="241.72"/>
  <line x1="219.63" y1="188.62" x2="241.72" y2="213.15"/>
  <line x1="253.72" y1="161.02" x2="273.11" y2="187.72"/>
  <line x1="290.50" y1="137.14" x2="307.00" y2="165.71"/>
  <line x1="329.58" y1="117.22" x2="343.00" y2="147.37"/>
  <line x1="370.52" y1="101.51" x2="380.72" y2="132.89"/>
  <line x1="412.89" y1="90.16" x2="419.75" y2="122.44"/>
  <line x1="456.20" y1="83.30" x2="459.65" y2="116.11"/>
</g>
<g stroke="#000000" stroke-width="2.6" stroke-linecap="round">
  <line x1="521.14" y1="96.55" x2="520.99" y2="99.55"/>
  <line x1="563.20" y1="100.97" x2="562.73" y2="103.94"/>
  <line x1="604.56" y1="109.77" x2="603.79" y2="112.66"/>
  <line x1="644.78" y1="122.83" x2="643.71" y2="125.63"/>
  <line x1="683.41" y1="140.03" x2="682.05" y2="142.71"/>
  <line x1="720.03" y1="161.18" x2="718.40" y2="163.69"/>
  <line x1="754.25" y1="186.03" x2="752.36" y2="188.36"/>
  <line x1="785.67" y1="214.33" x2="783.55" y2="216.45"/>
  <line x1="813.97" y1="245.75" x2="811.64" y2="247.64"/>
  <line x1="838.82" y1="279.97" x2="836.31" y2="281.60"/>
  <line x1="859.97" y1="316.59" x2="857.29" y2="317.95"/>
  <line x1="877.17" y1="355.22" x2="874.37" y2="356.29"/>
  <line x1="890.23" y1="395.44" x2="887.34" y2="396.21"/>
  <line x1="899.03" y1="436.80" x2="896.06" y2="437.27"/>
  <line x1="903.45" y1="478.86" x2="900.45" y2="479.01"/>
  <line x1="903.45" y1="521.14" x2="900.45" y2="520.99"/>
  <line x1="899.03" y1="563.20" x2="896.06" y2="562.73"/>
  <line x1="890.23" y1="604.56" x2="887.34" y2="603.79"/>
  <line x1="877.17" y1="644.78" x2="874.37" y2="643.71"/>
  <line x1="859.97" y1="683.41" x2="857.29" y2="682.05"/>
  <line x1="838.82" y1="720.03" x2="836.31" y2="718.40"/>
  <line x1="813.97" y1="754.25" x2="811.64" y2="752.36"/>
  <line x1="785.67" y1="785.67" x2="783.55" y2="783.55"/>
  <line x1="754.25" y1="813.97" x2="752.36" y2="811.64"/>
  <line x1="720.03" y1="838.82" x2="718.40" y2="836.31"/>
  <line x1="683.41" y1="859.97" x2="682.05" y2="857.29"/>
  <line x1="644.78" y1="877.17" x2="643.71" y2="874.37"/>
  <line x1="604.56" y1="890.23" x2="603.79" y2="887.34"/>
  <line x1="563.20" y1="899.03" x2="562.73" y2="896.06"/>
  <line x1="521.14" y1="903.45" x2="520.99" y2="900.45"/>
  <line x1="478.86" y1="903.45" x2="479.01" y2="900.45"/>
  <line x1="436.80" y1="899.03" x2="437.27" y2="896.06"/>
  <line x1="395.44" y1="890.23" x2="396.21" y2="887.34"/>
  <line x1="355.22" y1="877.17" x2="356.29" y2="874.37"/>
  <line x1="316.59" y1="859.97" x2="317.95" y2="857.29"/>
  <line x1="279.97" y1="838.82" x2="281.60" y2="836.31"/>
  <line x1="245.75" y1="813.97" x2="247.64" y2="811.64"/>
  <line x1="214.33" y1="785.67" x2="216.45" y2="783.55"/>
  <line x1="186.03" y1="754.25" x2="188.36" y2="752.36"/>
  <line x1="161.18" y1="720.03" x2="163.69" y2="718.40"/>
  <line x1="140.03" y1="683.41" x2="142.71" y2="682.05"/>
  <line x1="122.83" y1="644.78" x2="125.63" y2="643.71"/>
  <line x1="109.77" y1="604.56" x2="112.66" y2="603.79"/>
  <line x1="100.97" y1="563.20" x2="103.94" y2="562.73"/>
  <line x1="96.55" y1="521.14" x2="99.55" y2="520.99"/>
  <line x1="96.55" y1="478.86" x2="99.55" y2="479.01"/>
  <line x1="100.97" y1="436.80" x2="103.94" y2="437.27"/>
  <line x1="109.77" y1="395.44" x2="112.66" y2="396.21"/>
  <line x1="122.83" y1="355.22" x2="125.63" y2="356.29"/>
  <line x1="140.03" y1="316.59" x2="142.71" y2="317.95"/>
  <line x1="161.18" y1="279.97" x2="163.69" y2="281.60"/>
  <line x1="186.03" y1="245.75" x2="188.36" y2="247.64"/>
  <line x1="214.33" y1="214.33" x2="216.45" y2="216.45"/>
  <line x1="245.75" y1="186.03" x2="247.64" y2="188.36"/>
  <line x1="279.97" y1="161.18" x2="281.60" y2="163.69"/>
  <line x1="316.59" y1="140.03" x2="317.95" y2="142.71"/>
  <line x1="355.22" y1="122.83" x2="356.29" y2="125.63"/>
  <line x1="395.44" y1="109.77" x2="396.21" y2="112.66"/>
  <line x1="436.80" y1="100.97" x2="437.27" y2="103.94"/>
  <line x1="478.86" y1="96.55" x2="479.01" y2="99.55"/>
</g>
<g fill="#000000" stroke="none" id="t-TAO">
  <g transform="translate(346.100 455.000) scale(0.13500 -0.13500)"><path d="M489 699V641H295V0H225V641H30V699Z"/></g>
  <g transform="translate(437.900 455.000) scale(0.13500 -0.13500)"><path d="M485 166H167L106 0H32L287 690H366L620 0H546ZM464 224 326 602 188 224Z"/></g>
  <g transform="translate(547.520 455.000) scale(0.13500 -0.13500)"><path d="M48 350Q48 453 93.5 534.5Q139 616 218.0 661.5Q297 707 394 707Q492 707 571.0 661.5Q650 616 695.0 534.5Q740 453 740 350Q740 247 695.0 165.5Q650 84 571.0 38.5Q492 -7 394 -7Q297 -7 218.0 38.5Q139 84 93.5 165.5Q48 247 48 350ZM668 350Q668 439 632.0 506.0Q596 573 534.0 609.0Q472 645 394 645Q316 645 254.0 609.0Q192 573 156.0 506.0Q120 439 120 350Q120 261 156.0 193.5Q192 126 254.0 90.0Q316 54 394 54Q472 54 534.0 90.0Q596 126 632.0 193.5Q668 261 668 350Z"/></g>
</g>
<g fill="#000000" stroke="none" id="t-VEDA">
  <g transform="translate(297.500 605.000) scale(0.13500 -0.13500)"><path d="M634 699 369 0H289L24 699H100L329 76L560 699Z"/></g>
  <g transform="translate(408.065 605.000) scale(0.13500 -0.13500)"><path d="M150 642V381H415V323H150V58H445V0H80V700H445V642Z"/></g>
  <g transform="translate(497.570 605.000) scale(0.13500 -0.13500)"><path d="M657 348Q657 240 613.0 161.5Q569 83 486.0 41.5Q403 0 287 0H80V699H287Q403 699 486.0 657.0Q569 615 613.0 536.0Q657 457 657 348ZM586 348Q586 486 509.5 563.5Q433 641 287 641H150V58H287Q433 58 509.5 134.5Q586 211 586 348Z"/></g>
  <g transform="translate(614.480 605.000) scale(0.13500 -0.13500)"><path d="M485 166H167L106 0H32L287 690H366L620 0H546ZM464 224 326 602 188 224Z"/></g>
</g>
</svg>